<?xml version="1.0" standalone="no"?>
<!DOCTYPE svg PUBLIC "-//W3C//DTD SVG 20010904//EN"
 "http://www.w3.org/TR/2001/REC-SVG-20010904/DTD/svg10.dtd">
<svg version="1.0" xmlns="http://www.w3.org/2000/svg"
 width="343.000000pt" height="343.000000pt" viewBox="0 0 343.000000 343.000000"
 preserveAspectRatio="xMidYMid meet">
<metadata>
Created by potrace 1.11, written by Peter Selinger 2001-2013
</metadata>
<g transform="translate(0.000000,343.000000) scale(0.100000,-0.100000)"
fill="#000000" stroke="none">
<path d="M164 3181 c-2 -2 -4 -55 -4 -118 l0 -113 1565 0 1566 0 -3 117 -3
116 -1558 1 c-857 1 -1561 -1 -1563 -3z"/>
<path d="M639 2500 c0 -3 0 -257 -1 -565 l-1 -560 1084 0 1084 0 0 564 0 565
-1083 0 c-595 1 -1082 -1 -1083 -4z m1921 -560 l0 -340 -840 0 -840 0 0 340 0
340 840 0 840 0 0 -340z"/>
<path d="M988 1196 c-48 -17 -92 -36 -98 -42 -8 -8 9 -52 63 -160 61 -120 115
-254 172 -422 2 -6 15 -12 27 -12 28 0 178 56 196 74 10 9 6 29 -17 97 -47
141 -205 455 -244 487 -8 7 -40 0 -99 -22z"/>
<path d="M2314 1202 c-37 -170 -85 -291 -219 -557 l-101 -200 -969 -2 c-534
-1 -976 -2 -983 -2 -10 -1 -12 -28 -10 -117 l3 -116 1685 0 1685 0 3 116 c2
89 0 116 -10 117 -7 0 -271 0 -585 -1 l-573 -2 46 84 c25 46 91 175 146 288
63 129 112 218 135 241 66 69 32 102 -154 153 l-93 25 -6 -27z"/>
</g>
</svg>
